Patient4_TMGait_0pt3_03_right_11_EMG.mot
version=1
nRows=37
nColumns=33
inDegrees=no
endheader
time	1LAddLong	2LGlutMax	3LGlutMed	4LIliopsoas	5LSemiMemb	6LBicFemLong	7LRecFem	8LVastMed	9LVastLat	10LGasMed	11LTibAnt	12lTibPost	13LPeroneusLong	14LSol	15LExtDigLong	16LFlexDigLong	17RAddLong	18RGlutMax	19RGlutMed	20RIliopsoas	21RSemiMemb	22RBicFemLong	23RRecFem	24RVastMed	25RVastLat	26RGasMed	27RTibAnt	28RTibPost	29RPeroneusLong	30RSol	31RExtDigLong	32RFlexDigLong
21.485	0.003357	-0.24735	0.019073	0.007019	-0.015717	-0.028839	0.003662	-0.001526	0.049744	0.10803	0.013275	0.17593	-0.30731	0.61478	0.055389	-0.004578	0.017395	0.59296	0.12222	-0.005493	0.068817	0.07843	0.089722	0.024414	0.011749	0.028992	-0.051117	-0.003204	0.11246	-0.18768	-0.015259	-0.007782
21.486	0.009003	-0.26138	0.044556	0.017242	0.044098	-0.034332	0.026855	-0.006104	0.057983	0.2034	0.003815	-0.17242	-0.21942	0.77301	0.053711	-0.033417	0.088348	0.62012	0.08316	-0.042725	-0.08255	0.091553	0.08194	-0.13016	-0.026855	-0.014648	-0.046692	-0.009308	0.13046	-0.081177	-0.018311	-0.005951
21.487	0.001068	-0.25986	0.039673	0.008087	0.030518	-0.066986	0.009918	0.011139	0.047302	0.25467	-0.018616	-0.76553	0.18204	1.3763	0.026093	0.71472	0.1001	0.59311	0.13733	-0.037842	-0.23438	0.021515	0.0383	-0.14618	-0.061035	-0.011902	0.067749	-0.009918	-0.74677	-0.055389	-0.020447	-0.004272
21.488	0.004578	-0.27847	0.053253	0.004883	-0.008545	-0.085754	0.027161	-0.000305	0.04715	0.10819	-0.007324	0.52155	0.26276	0.961	-0.027466	0.27771	0.079956	0.54657	-0.05661	-0.035858	-0.17654	-0.028839	0.06546	-0.088806	-0.057373	-0.065918	0.056458	-0.00885	0.025482	-0.077057	-0.024261	0.001831
21.489	0.000305	-0.26474	0.031586	0.005188	0.023346	-0.044403	0.027466	0.0177	0.049133	0.012512	-0.013123	0.25467	0.21683	0.23102	-0.055847	-0.52231	0.037842	0.53421	0.033264	-0.035706	-0.12207	-0.027161	0.065613	0.034027	-0.044708	-0.10452	-0.093231	-0.012817	0.55573	-0.093536	-0.016479	-0.00351
21.49	0.005035	-0.27313	0.028687	0.011902	-0.005035	0.003967	0	-0.002899	0.042419	0.067139	0.005798	0.13138	0.12085	0.11307	-0.088501	0.002289	-0.068054	0.57251	0.24399	0.11688	0.16159	-0.15228	0.0383	0.19211	0.020599	-0.077057	-0.050354	-0.015717	-0.83084	-0.049286	-0.014343	-0.007019
21.491	0.000458	-0.30899	0.034637	-0.00061	0.000916	0.01358	0.019073	0.012054	0.039673	0.033875	0.019379	0.04303	-0.034485	-0.75729	-0.037994	-0.30289	-0.099792	0.57068	0.040741	0.20264	0.30182	-0.20187	0.077667	0.21164	0.019379	-0.050659	0.037994	-0.018158	-1.3264	0.037689	-0.012665	-0.010376
21.492	0.00473	-0.31448	0.02655	0.010986	0.020142	0.025787	0.009918	-0.000916	0.055389	-0.00946	-0.00061	-0.05661	-0.12268	-0.99823	-0.000305	-0.27649	-0.10025	0.51895	0.13779	0.2684	0.15808	-0.17319	0.10742	0.21668	0.02243	-0.023346	0.072937	-0.018158	-1.384	-0.040741	-0.012054	-0.016174
21.493	0.005798	-0.31601	0.059967	-0.000305	0.031281	0.10376	0.002747	-0.010986	0.039825	-0.013428	0.006104	-0.033112	-0.1001	-0.84457	-0.028534	0.40588	-0.053253	0.61584	0.31494	0.14297	-0.093994	-0.1178	0.085449	0.15884	0.02182	-0.032043	0.06012	-0.019073	-0.62515	-0.06424	-0.014038	-0.013733
21.494	-0.005493	-0.32303	0.067291	0.00412	0.009613	0.079193	0.0177	-0.004425	0.045013	-0.056458	-0.023041	-0.041351	-0.099335	-0.76385	-0.016479	-0.29984	-0.018921	0.58304	0.43182	0.027008	-0.3598	-0.1236	0.13168	0.062866	-0.018005	0.009766	0.055237	-0.024719	-0.71106	0.009613	-0.017853	-0.014191
21.495	0.003052	-0.32516	0.016785	0.008392	0.006714	-0.000916	0.011749	0.006866	0.04425	-0.07843	0.020752	-0.030518	-0.075378	-0.65323	-0.007019	-0.26413	-0.003052	0.60181	0.059052	0.029907	-0.44067	0.007172	0.14358	0.04303	-0.022888	0.14801	0.041351	0.000763	-1.4684	-0.056305	-0.011902	-0.00946
21.496	-0.005341	-0.34515	-0.023651	0.009766	0.013123	-0.030975	0.028381	-0.001526	0.039063	-0.091705	0.024719	-0.032196	0.059357	-0.35675	0.004425	-0.053864	0.013275	0.61752	-0.20783	0.06012	0.10986	-0.19394	0.16129	-0.046387	-0.065002	0.05722	0.084839	0.071869	-1.2592	-0.15823	-0.009308	-0.012817
21.497	-0.003967	-0.31616	0.006866	0.001526	0.014954	-0.038147	0.040131	0.006866	0.031281	-0.077515	-0.009155	-0.048523	-0.11093	-0.32989	-0.011597	0.34775	0.002747	0.60745	-0.29114	0.035858	0.1149	-0.16342	0.19165	-0.12726	-0.11505	0.036926	-0.034943	-0.001526	0.72891	-0.12634	-0.006561	-0.007629
21.498	-0.002594	-0.31403	0.10666	-0.002899	0.003204	-0.016632	0.046997	-0.015106	0.036621	-0.041199	0.006409	-0.035248	-0.47501	-0.24414	0.016327	-0.025482	0.000916	0.56427	0.13199	0.029297	0.075836	0.086975	0.14954	-0.097961	-0.16037	0.002747	-0.087585	-0.009308	1.9363	-0.036926	-0.016327	-0.010376
21.499	-0.000763	-0.30975	0.1178	0.01236	0.002136	-0.005341	0.0383	-0.00351	0.038147	0.040283	0.007629	-0.02182	-0.35812	-0.29831	0.020599	0.094757	0.015259	0.59891	0.21423	-0.002899	0.12543	0.30212	0.075073	-0.076599	-0.12528	-0.016174	0.056305	-0.007782	1.1765	-0.034332	-0.00946	-0.010681
21.5	0.012817	-0.29846	0.087128	0.006409	0.002441	-0.002899	0.007935	0.007782	0.041351	-0.010834	0.004272	0.010986	0.070648	-0.26382	0.023499	0.24338	0.035095	0.59769	0.20004	0.001526	-0.008392	0.20126	0.13229	-0.033875	-0.14923	-0.07843	0.072021	-0.010529	-0.42648	-0.15411	-0.011597	-0.018158
21.501	0.001373	-0.29343	0.052795	-0.006714	0.003357	0.011597	0.021515	0.005646	0.047302	-0.063782	-0.000458	0.042419	0.16037	-0.18585	0.039368	-0.10712	0.062256	0.58518	0.20416	-0.00946	-0.1236	0.13245	0.16495	-0.02533	-0.1297	-0.061951	-0.027618	-0.010223	-0.82825	-0.013123	-0.011444	-0.008545
21.502	0.000305	-0.28915	0.053101	-0.00351	-0.007019	0.014038	0.007019	0.004883	0.035248	-0.15243	-0.011444	0.044098	0.1239	-0.60165	0.021515	0.006256	0.037231	0.58884	0.017548	0.00061	-0.088196	0.014191	0.14236	-0.031281	-0.055389	0.014954	-0.1178	-0.001984	0.11765	-0.084381	-0.010223	-0.012512
21.503	0.00061	-0.30868	0.050812	0.01236	-0.014038	0.029449	0.019226	-0.000458	0.032501	-0.23254	0.003967	-0.17105	-0.000763	-0.82077	0.081787	-0.10712	0.04364	0.61325	-0.012665	-0.054932	-0.16708	-0.061951	0.074615	-0.015106	0.096436	0.072937	-0.22797	-0.002289	0.22797	-0.005188	-0.005798	-0.010834
21.504	0.002747	-0.27664	0.055695	0.0177	-0.002441	0.014801	0.005951	-0.007782	0.049744	-0.27191	0.020905	-0.014496	-0.11963	-0.57281	0.074005	-0.035553	0.077057	0.55405	0.018616	-0.038757	-0.19608	0.027008	0.10269	0.056305	0.13107	0.039215	-0.11078	-0.011139	-0.089111	0.07782	-0.009003	-0.005646
21.505	0.00412	-0.29144	0.049591	0.012817	-0.009155	0.016327	0.007172	0.001221	0.054016	-0.1648	0.009308	0.37994	-0.016632	-0.6694	0.035706	0.034027	0.06485	0.58838	0.090637	-0.014496	0.003662	0.12695	0.19333	0.088654	0.070801	0.033112	-0.035248	-0.014954	-0.42496	-0.055389	-0.009766	-0.002899
21.506	0.010071	-0.30731	0.04425	0.007629	-0.015411	0.012817	0.014954	0.000763	0.053253	0.056	0.013885	-0.24811	-0.37506	-0.2179	0.010529	-0.021515	0.035858	0.61264	0.054321	-0.02655	0.016632	0.1326	0.16525	-0.045319	-0.019989	0.032654	-0.072327	-0.014801	1.1472	0.009155	-0.012817	-0.003662
21.507	0	-0.32089	0.068359	0.006256	-0.011902	0.005341	-0.001526	0.012665	0.061646	0.23651	0.006409	0.12894	-0.25284	0.78903	0.01297	0.20386	0.039978	0.46188	0.004272	-0.028381	0.007019	0.068207	0.10986	-0.13748	-0.05127	0.019073	0.014648	-0.011749	0.66544	0.14526	-0.006104	-0.008698
21.508	-0.002899	-0.33859	0.054016	-0.002441	0.009003	0.010223	0.005646	-0.009613	0.068665	0.24246	-0.007935	0.1535	-0.052032	1.8124	0.025177	-0.73776	0.01297	0.43243	0.074768	0.006409	-0.024567	0.12283	0.075226	-0.07843	-0.018463	0.007782	0.11276	-0.018463	0.33417	0.19898	-0.014191	-0.014801
21.509	0.008392	-0.33493	0.056763	-0.002899	0.012207	0.022736	-0.029602	0.003815	0.075989	0.23285	-0.016327	-0.20752	-0.066223	2.0703	-0.037842	0.53207	-0.087738	0.44998	0.03891	-0.03891	0.13412	0.13107	-0.052948	0.11047	0.077515	0.001221	0.0177	-0.001831	1.0995	0.12054	-0.007629	-0.007782
21.51	-0.001678	-0.34515	0.042267	-0.000153	0.007477	0.027618	-0.007935	0.002136	0.063782	0.12985	-0.023956	0.13992	0.19791	0.88013	-0.10513	-0.6221	-0.13992	0.35706	-0.18723	-0.17654	0.15976	-0.21713	-0.19073	0.21439	0.233	-0.027771	-0.097961	0.011292	0.36026	0.095367	-0.009766	-0.007477
21.511	0.005798	-0.34637	0.04425	0.00351	0.003662	0.083466	-0.006104	-0.009003	0.062561	0.11658	0.002594	0.041504	0.14282	-0.12329	-0.15762	0.49347	-0.07309	0.28046	-0.32944	-0.16968	0.054932	-0.42511	-0.14343	0.1062	0.23804	-0.032654	-0.10956	-0.003052	-0.70389	-0.002747	-0.006714	-0.010071
21.512	-0.000153	-0.33432	0.042419	0.004578	0.002899	0.066223	-0.003052	0.00946	0.063782	0.11597	0.006866	-0.035858	-0.12253	-0.21332	-0.050964	0.21591	-0.039978	0.20905	-0.20554	-0.11002	-0.097656	-0.40543	0.024719	-0.014801	0.20493	-0.044861	-0.10315	-0.001373	-0.17654	-0.10422	-0.006866	-0.006104
21.513	0.007629	-0.32806	0.035706	0.014191	0.004272	0.052948	-0.010071	-0.001221	0.062103	0.053101	-0.007324	-0.031586	0.30197	-0.56015	-0.037537	0.039063	-0.049744	0.14099	0.053101	0.075836	-0.059967	-0.22171	0.043182	0.013275	0.16602	-0.042725	-0.072632	-0.007019	-0.14801	-0.1416	-0.011902	-0.013885
21.514	0.001068	-0.31311	0.031891	0.002747	0.000153	0.059357	0.004578	-0.000153	0.045624	0.079193	-0.027161	0.015869	0.39307	0.074005	-0.001526	-0.14801	-0.037079	0.14008	0.2887	0.25207	0.008698	-0.17853	0.010223	0.033569	0.10788	-0.025635	-0.013428	-0.035095	-0.097656	0.011902	-0.005341	-0.018768
21.515	0.009155	-0.27679	0.034332	0.019531	0.001984	0.02594	0.003662	0.006714	0.041962	0.046692	-0.022278	0.005188	0.35309	-0.088501	0.040588	0.050812	-0.024567	0.14679	0.37445	0.18982	0.028992	-0.067596	0.024261	-0.040283	0.066833	-0.022278	0.006714	-0.01709	0.28641	0.056458	-0.005188	-0.016632
21.516	0.002136	-0.26398	0.050201	0.013885	-0.008087	-0.011292	-0.016785	-0.007935	0.034943	0.024414	-0.014801	-0.029602	0.10376	-0.18662	0.034943	-0.099945	-0.024261	0.11902	-0.13473	0.18707	-0.10773	0.11612	0.050049	-0.11597	0.017395	-0.026245	-0.007935	0.046234	0.37079	0.068817	-0.000763	-0.018921
21.517	0.007935	-0.24704	0.041046	0.00946	-0.007477	-0.050659	-0.002289	0.009003	0.033875	-0.023041	-0.00412	-0.036316	-0.057678	-0.33188	-0.003967	-0.60257	-0.021057	0.061951	-0.2211	0.15915	-0.14877	0.31158	0.025635	-0.097961	0.011749	0.002136	-0.013885	-0.006409	0.15518	0.063477	-0.004425	-0.015106
21.518	0.004578	-0.22903	0.02533	0.00473	0.002747	-0.081482	0.012512	0.007629	0.027466	-0.060883	0.002899	-0.019379	-0.083771	-0.70496	-0.040131	0.001373	-0.054016	-0.054016	-0.26977	0.093842	-0.23438	0.1944	-0.028381	-0.053558	0.025635	0.018616	-0.002136	-0.021667	0.11017	-0.048676	0.000763	-0.014191
21.519	0.009613	-0.24292	0.042572	0.006256	-0.026093	-0.085602	-0.009613	-0.010376	0.031281	-0.052948	0.011749	-0.00412	-0.037689	-0.48202	-0.005188	-0.022125	-0.04837	-0.12848	-0.17319	0.040436	0.1152	-0.17502	0.000305	0.00061	0.033112	0.033417	0.017853	0.048218	0.011902	-0.11826	-0.002747	-0.009918
21.52	0.009766	-0.17502	0.046387	-0.006866	-0.015106	-0.097504	-0.008087	0	0.032806	-0.039673	0.006256	0.000305	-0.085449	-0.19867	0.017548	-0.062561	-0.048828	-0.10239	-0.019836	-0.001678	0.3122	-0.33585	-0.019989	0.037079	0.012665	-0.022583	0.010834	0.001068	0.004425	-0.15854	0	-0.015411
21.521	0.01236	-0.14832	0.066071	-0.007782	-0.007172	-0.11337	0.00061	0.000153	0.028839	-0.019531	0.006104	-0.010834	-0.15595	-0.10834	0.024872	-0.067444	-0.041962	-0.14175	0.11276	-0.033264	0.14236	-0.33142	-0.072784	0.063629	0.00946	-0.07019	0.011444	-0.019684	0.009003	-0.064545	0.003052	-0.014191
